<svg width="1290" height="32768" viewBox="0 0 1290 32768" fill="none" xmlns="http://www.w3.org/2000/svg">
<g clip-path="url(#clip0_767_2)">
<path d="M1170.29 158.016C1170.29 337.155 1170.29 468.566 1170.29 468.566C1170.29 685.273 813.621 677.856 813.621 837.485V1415.05C813.621 1640.14 1170.29 1660.46 1170.29 1962.95V4132.92V5204.85C1170.29 5357.71 1068.06 5439.94 1068.06 5547.01C1068.06 5654.07 1170.29 5721.15 1170.29 5812.09C1170.29 5903.03 1162.55 9112.36 1162.55 9112.36C1162.55 9409.05 519.196 9554.81 519.195 9764.74C519.195 9974.68 1092.25 10129.1 1092.25 10346.8V11337.5C1092.25 11416.2 949.063 11435.5 949.063 11531.6C949.063 11627.7 1092.25 11667.7 1092.25 11767.4V14169.8C1092.25 14361.9 728.972 14483.7 613.587 14602C591.803 14624.3 578.854 14646.5 578.854 14669C578.854 14810.9 954.868 14978.3 954.868 15084.4C954.868 15190.5 1139 15211.1 1139 15325V15465.9C1139 15742.3 1372.8 15687.4 1372.8 15917.4V23309C1372.8 23515 1168.67 23665.6 1168.67 23850.1V24448.6V26146.2C1168.67 26511.9 807.171 26519 807.171 26768.6C807.171 26844.7 799.109 27565.7 799.109 27565.7C799.109 27836 1164.8 27998.2 1164.8 28305.2V28809.5V30255.9C1164.8 30498.7 510.811 30670.6 510.811 30774.7C510.811 30873.9 510.811 30687.7 510.811 30837.3C510.811 30986.9 1164.8 31062.1 1164.8 31252C1164.8 31526.1 1162.22 31733.5 1162.22 32060.5C1163.19 32254.6 724.939 32270.4 724.939 32423.9C724.939 32511.4 724.939 32426 724.939 32597.7" stroke="#190CAE" stroke-width="10" stroke-linecap="round"/>
<path d="M902.304 137.7C902.304 548.286 902.304 554.991 699.463 838.13" stroke="#71C1E9" stroke-width="10" stroke-linecap="round"/>
<path d="M391.493 174.14C391.493 353.279 391.493 523.388 391.493 523.388C391.493 691.723 537.256 766.714 537.255 841.677C537.254 979.377 391.493 1024.85 391.493 1266.71C391.493 1508.57 394.396 2313.81 394.396 2313.81C394.396 2458.6 303.778 2485.69 303.778 2601.46C303.778 2601.46 303.778 3370.26 303.778 3642.11C303.778 3768.52 437.931 3793.67 437.931 3920.09C437.931 4046.5 303.778 4150.66 303.778 4292.23C303.778 4433.8 437.931 4506.36 437.931 4604.07C437.931 4878.82 438.253 6610.87 438.253 6610.87V6940.77C438.253 7072.34 577.887 7113.3 577.887 7223.59C577.887 7262.69 577.887 7168.12 577.887 7313.88C577.887 7459.64 495.009 7419.66 495.009 7716.66C495.009 7716.66 495.009 8424.51 495.009 8540.6C495.009 8656.7 495.009 8748.28 495.009 8887.59C495.009 9026.9 312.163 9023.04 312.163 9154.93C312.163 9286.83 312.163 9362.61 312.163 9362.61C312.163 9362.61 312.163 9386.79 312.163 9490.31C312.163 9593.83 519.519 9594.79 519.519 9722.18C519.519 9849.56 311.518 9890.83 311.518 9980.16C311.518 10069.5 405.683 10083.4 405.683 10205.9C405.683 10205.9 405.683 11589.3 405.683 11645.5C405.683 11701.6 458.892 11750.3 458.892 11821.9C458.892 11893.4 458.892 13279.5 458.892 13279.5C458.892 13366.5 382.464 13419.4 382.464 13485.2C382.464 13551 385.045 14983.5 385.045 14983.5C385.045 15235.6 759.444 15392 759.444 15551C759.444 15710 619.487 15702 619.487 16008M619.487 16008C619.487 16060.3 619.487 15957.1 619.487 16008ZM619.487 16008C619.487 16727 619.487 21954.2 619.487 21954.2C619.487 22124.2 317.967 22099.3 317.967 22210V23108.7V25832.4C317.967 26018.1 674.954 26000.4 674.954 26206.8V26282.6C674.954 26481.5 490.172 26497.3 490.172 26620.2C490.172 26743.1 639.803 26785.6 639.803 26898.8C639.803 27080.1 639.803 30704.3 639.803 30762.5C639.803 30949.5 428.256 30962.4 428.256 31034C428.256 31086.6 427.053 31087 428.256 31160.8C429.991 31267.2 650.445 31228.8 650.445 31418.4" stroke="#E8BD2C" stroke-width="10" stroke-linecap="round"/>
<path d="M924.232 20277C924.232 20452.8 839.097 20394.1 839.097 20507.9C839.097 20621.7 839.097 20786.2 839.097 20786.2" stroke="white" stroke-width="10" stroke-linecap="round"/>
<path d="M632.871 154.146C632.871 1542.92 632.871 3710.33 632.871 3710.33C632.871 3809.01 565.635 3827.07 565.635 3914.15C565.635 4001.22 632.871 4034.44 632.871 4151.18L632.871 5186.72C632.871 5352.81 811.363 5469.55 811.363 5560.5C811.363 5651.44 632.871 5728.89 632.871 5830.11L631.744 7580.9C631.744 7816.95 358.599 7925.31 358.599 8086.23C358.599 8247.14 631.744 8384.52 631.744 8551.57C631.744 8718.61 550.476 8694.43 550.476 8855.02C550.476 9015.62 761.379 9159.44 761.379 9472.9L761.379 10786.7C761.379 10870.2 663.022 10943.4 663.022 11015.3C663.022 11015.3 663.022 11267.8 663.022 11337.1C663.022 11406.5 850.706 11463.3 850.706 11522.9C850.706 11582.6 663.022 11649 663.022 11714.8L663.022 14391.4C663.022 14532.3 413.099 14575.8 413.099 14692.9C413.099 14810 783.63 14994.1 783.63 15064.4C783.63 15134.7 1031.94 15252.1 1031.94 15324.3L1031.94 15704.9L1031.94 16031.2C1031.94 16208.9 928.747 16386.6 928.747 16559.8L928.747 20290.5C928.747 20466.3 1013.88 20407.6 1013.88 20521.4C1013.88 20635.3 1013.88 20740.4 1013.88 20740.4C1013.88 20799.4 928.747 20810.7 928.747 20858.8L928.747 23604.4C928.747 23715.9 1008.08 23843 1008.08 24039.4L1008.08 24576" stroke="#211D1A" stroke-width="10" stroke-linecap="round"/>
<path d="M128.35 173.173V777.503C122.33 1072.45 489.53 1106.43 489.53 1356.04V1560.81C489.53 1822.99 257.07 1859.11 257.07 2086.46V2225.45C257.07 2441.51 489.53 2491.82 489.53 2647.57V6287.42C489.53 6481.56 563.7 6463.5 563.7 6597.33C563.7 6731.16 281.529 6766.31 281.529 6874.02C281.529 6874.02 281.529 8445.79 281.529 8569.63C281.529 8693.46 281.529 8746.67 281.529 8872.76C281.529 8998.85 486.95 9029.81 486.95 9162.67C486.95 9295.53 486.95 9359.38 486.95 9359.38C486.95 9359.38 486.95 9382.92 486.95 9489.34C486.95 9595.76 280.562 9598.34 280.562 9722.18C280.562 9846.01 486.95 9906.96 486.95 10022.1C486.95 10137.2 486.95 10405.5 486.95 10405.5C486.95 10545.1 287.656 10585.5 287.656 10684.1C287.656 10782.8 287.656 10926.3 287.656 11036.6C287.656 11036.6 287.656 11597.1 287.656 11653.5C287.656 11710 334.416 11761.9 334.416 11830.9C334.416 11899.9 334.416 12432 334.416 12432C334.416 12559 752.675 12739 752.675 12923.4C752.675 13012.8 752.675 13180.5 752.675 13180.5C752.675 13257.5 666.572 13354.6 666.572 13354.6C666.572 13354.6 486.627 13465.9 486.627 13608.1V14668.7C486.627 14808.7 854.901 14979.9 854.901 15058.6V15548.1C854.901 15887.4 280.562 16020.9 280.562 16346.3C280.562 16720.5 295.054 17167.4 295.718 17558.5C295.891 17660.2 376.64 17773.8 376.661 17857.7C376.716 18077 375.371 19439.5 375.371 19490.5C375.371 19541.4 298.943 19610.1 298.943 19649.4C298.943 19688.8 298.298 21392.8 298.298 21392.8C298.298 21493.1 533.387 21570.5 533.387 21691.1V23063.2V26257.4C533.387 26458 370.534 26500.9 370.534 26637.6C370.534 26774.4 544.351 26820.1 546.931 26935C549.511 27049.8 547.435 27267.4 547.435 27267.4C547.131 27385.8 546.931 27710.5 546.931 27810.8C546.931 28080.1 411.812 27990.8 411.812 28117.5M411.812 28117.5C411.812 28143.6 411.812 28287.1 411.812 28287.1M411.812 28117.5V28287.1M411.812 28287.1C411.812 28467.4 593.369 28449.3 593.369 28605.1V28822.8C593.369 28947.2 229.609 29222.3 229.609 29376.5C229.609 29474.8 229.609 29553.5 229.609 29644.4C229.609 29767.5 228.534 30237.7 229.609 30796C229.997 30997.6 393.43 31069.5 393.43 31283.6V31965.7C393.43 32069.4 393.43 32104.7 393.43 32208.5C393.43 32277.5 606.268 32347.8 606.268 32407.5V32486.2" stroke="#EC8153" stroke-width="10" stroke-linecap="round"/>
<path d="M121.898 1989.07V7225.38V15976.4C121.898 16111.5 197.681 16191.8 197.681 16292.1V17605.9C197.681 17699.4 225.268 17756.5 225.268 17839.4V19448.5C225.268 19552.7 529.515 19689.4 529.515 19783.9C529.515 19878.4 235.734 19984.2 235.734 20089.6V22638.5" stroke="#2E4EF4" stroke-width="10" stroke-linecap="round"/>
<path d="M941.646 5319.66L934.552 8305.84C934.552 8602.52 666.892 8696.04 666.892 8885.01C666.892 9073.99 934.552 9082.37 934.552 9482.57V11829.6C932.939 11996 531.772 12116.9 531.772 12319.4C531.772 12522 940.048 12548.7 940.048 12708.7V13631.3C940.048 13862.8 294.103 14217.2 294.103 14415.9V15933.5C294.103 16214.4 460.181 16129.6 460.181 16363V19536.9C460.181 19593.3 370.531 19659.4 370.531 19732.6C370.531 19744.6 370.531 19827 370.531 19840C370.531 19967.1 431.48 19960.3 431.48 20047.4V23099.4V24041C431.48 24273.5 365.178 24327.5 363.114 24427.3C361.05 24527.2 362.254 25966.8 363.114 26051C363.114 26301.3 214.128 26452.8 -7.73956 26537.7" stroke="#E72D2D" stroke-width="10" stroke-linecap="round"/>
<path d="M205.421 4341.89V15988.3C192.844 16258.6 -61.9165 16251.5 -61.9165 16424.6V23212.2V25505.7C-61.9157 25972 -85.7801 28093.3 -85.7801 28093.3C-85.7801 28425.9 530.16 28463.8 530.16 28623.5V28758.6C530.16 28907.9 114.158 29140.4 114.158 29373.6C114.158 29373.6 114.158 29606.4 114.158 29920.5C114.158 30029.8 518.56 30006.3 518.56 30123.3C517.574 30242.7 518.55 30235.2 518.55 30352.6C518.55 30470 329.931 30482.9 329.931 30622.9C329.931 31081.1 130.605 30838.6 130.605 31136.9C130.605 31383.6 130.605 31890.2 130.605 32082.1C130.605 32237.5 535.642 32337.7 535.642 32466.5V32652.2" stroke="#FF73CF" stroke-width="10" stroke-linecap="round"/>
<path d="M-68.3663 29685.4C-68.3663 29925.6 577.436 29946.3 577.436 30119.5V30430.3C577.436 30516.8 430.835 30515.8 430.835 30652.2C430.835 30973.7 191.554 30994.7 191.554 31123.7V31583.5C191.554 31684.8 408.584 31763.8 408.584 31763.8C408.584 31763.8 620.132 31866.3 620.132 31953.7V32174.6" stroke="white" stroke-width="10" stroke-linecap="round"/>
<path d="M837.807 11044.3V11346.8C837.807 11416.5 686.886 11446.8 686.886 11521.3C686.886 11595.8 837.807 11636.1 837.807 11725.1V13159.5C837.807 13270.4 748.636 13301.4 764.604 13364.9C804.914 13525.2 1125.14 13700.3 1333.78 13724.2" stroke="#8E4F06" stroke-width="10" stroke-linecap="round"/>
<path d="M1178.03 18106.4V21751.4C1178.03 21934.6 1388.41 22060.3 1388.41 22060.3" stroke="#32F3FF" stroke-width="10" stroke-linecap="round"/>
<path d="M1010.01 24604.4V26044.9V26203.6C1010.01 26281.6 932.617 26390.9 861.671 26435.8C817.061 26471 713.652 26561.8 713.652 26720.5C713.652 26863.7 713.652 26929 713.652 27072.3" stroke="white" stroke-width="10" stroke-linecap="round"/>
<path d="M1112.88 27800.8C1112.88 27965.9 742.998 27948.2 742.998 28086.5C742.998 28224.9 742.998 28192.3 742.998 28192.3C742.998 28260.4 742.997 28304.9 742.998 28331.6C743.004 28637 1045.17 28496.1 1045.17 28813.1V29173.6C1045.17 29357.8 840.065 29455.5 840.065 29621.2L847.482 29792.1C847.482 30188.8 1369.9 30067.5 1369.9 30339.7" stroke="#0E7A0C" stroke-width="10" stroke-linecap="round"/>
</g>
<defs>
<clipPath id="clip0_767_2">
<rect width="2000" height="50806" fill="white" transform="scale(0.644963)"/>
</clipPath>
</defs>
</svg>
