<svg width="508" height="358" viewBox="0 0 508 358" fill="none" xmlns="http://www.w3.org/2000/svg">
<g clip-path="url(#clip0_539_893)">
<path d="M109.633 280.843C108.982 281.07 108.218 281.153 107.696 281.554C104.201 284.255 100.011 285.556 96.0847 287.371C93.354 288.635 90.5551 289.784 87.7033 290.753C85.2221 291.592 82.6502 292.22 80.0707 292.697C79.0268 292.893 77.809 292.576 76.7575 292.235C75.1009 291.698 74.6394 290.51 75.7514 289.217C77.2719 287.447 78.9966 285.821 80.7894 284.33C87.499 278.755 95.2299 274.754 102.62 270.238C107.696 267.137 112.742 263.975 117.749 260.76C124.981 256.123 132.175 251.433 139.361 246.728C140.859 245.744 142.205 244.549 143.673 243.52C148.703 240.011 153.824 236.629 158.772 233.014C163.333 229.678 167.705 226.092 172.191 222.643C175.534 220.071 179.014 217.658 182.237 214.942C183.931 213.513 185.285 211.637 186.624 209.844C188.424 207.438 189.922 204.798 191.798 202.461C194.854 198.649 195.974 194.125 196.98 189.526C197.396 187.635 197.729 185.721 198.084 183.883H194.06C189.998 187.476 186.215 191.629 182.978 196.288C182.131 197.506 180.996 198.52 179.854 199.783C178.749 199.095 177.819 198.52 176.654 197.794C175.081 199.102 173.432 200.472 171.291 202.249C170.784 201.546 170.315 200.895 169.823 200.207C165.232 201.273 164.589 200.857 163.688 196.13C163.598 195.668 163.537 195.199 163.416 194.745C163.045 193.376 162.493 192.037 162.312 190.645C162.145 189.39 162.38 188.089 162.448 186.591C159.589 187.499 156.873 187.862 154.656 185.691C152.349 183.437 153.892 180.781 154.384 178.141C153.537 178.141 152.909 178.096 152.281 178.141C149.006 178.399 145.874 177.846 142.879 176.53C139.543 175.063 139.059 173.489 140.942 170.312C141.275 169.745 141.736 169.261 142.099 168.709C142.304 168.399 142.485 168.051 142.576 167.695C142.637 167.453 142.523 167.158 142.455 166.659C138.839 167.975 135.397 167.377 132.024 165.985C128.135 164.374 127.591 162.415 130.132 159.147C130.291 158.935 130.352 158.648 130.639 157.975C129.505 157.884 128.536 157.687 127.576 157.755C123.922 158.013 120.692 156.772 117.583 155.085C114.368 153.345 114.073 151.348 116.471 148.474C117.432 147.324 118.317 146.114 119.27 144.873C118.385 143.776 117.28 144.177 116.32 144.117C112.84 143.897 109.315 144.011 105.903 143.421C103.165 142.944 100.449 141.878 97.938 140.645C94.7004 139.064 94.6853 137.226 97.5295 134.858C97.7413 134.684 97.8851 134.442 98.0515 134.245C97.7565 133.073 96.9698 133.141 96.0469 133.232C92.1739 133.602 88.49 132.816 85.1465 130.879C83.626 130.002 82.272 128.746 81.0465 127.468C79.8968 126.272 80.0632 125.1 81.4399 124.094C82.9452 122.982 84.6019 122.074 86.2963 121.015C85.5096 119.608 84.2388 119.707 83.0587 119.729C76.1296 119.865 70.0024 117.036 63.8071 114.517C62.5741 114.018 61.568 112.944 60.3728 112.066C62.559 108.194 66.901 108.436 70.0554 106.03C69.3065 105.796 68.9131 105.569 68.5122 105.561C63.7239 105.546 59.2003 104.275 54.6995 102.785C49.48 101.053 44.4874 98.8893 39.9034 95.8484C39.4344 95.5383 38.8897 95.2887 38.5191 94.8802C37.755 94.0481 37.6718 93.1631 38.7989 92.5503C39.6235 92.104 40.4858 91.5972 41.386 91.4308C44.0714 90.9391 46.7719 90.5306 49.4875 90.2205C52.1049 89.9255 54.7449 89.7969 57.3773 89.5775C58.2623 89.5019 59.0944 89.3128 59.0869 87.8907C58.5725 87.7318 57.9976 87.4217 57.4151 87.399C51.1896 87.1494 45.3649 85.3717 39.7294 82.8301C35.0848 80.7423 30.4175 78.7151 25.8032 76.5592C20.6215 74.1386 16.1131 70.7271 12.0434 66.7255C11.7332 66.4154 11.582 65.9464 11.3248 65.4925C12.6864 64.1839 14.2598 64.6982 15.697 64.7436C17.7621 64.8117 19.8272 65.0462 21.8923 65.1975C26.4915 65.553 31.0907 65.9464 35.6975 66.2414C40.2135 66.5288 44.7371 66.7179 49.2606 66.9071C49.8355 66.9297 50.4255 66.6726 51.0837 66.022C49.3816 65.3261 47.6872 64.5848 45.9701 63.9418C41.6432 62.323 37.1953 60.969 32.9819 59.093C26.6882 56.3018 20.3946 53.3819 15.1373 48.7979C11.877 45.9613 8.85118 42.8599 5.41691 39.5845C7.13405 38.8961 8.35949 39.1911 9.61519 39.4861C19.0784 41.7176 28.5491 43.9416 38.0274 46.1201C39.7521 46.5135 41.5297 46.6647 43.4738 46.4832C40.796 45.167 38.0576 43.9491 35.4479 42.5043C32.8079 41.0444 30.2435 39.4256 27.7321 37.7539C25.1451 36.0216 22.6185 34.1911 20.1374 32.3151C17.6562 30.4391 15.228 28.4875 12.8225 26.5132C10.4927 24.5994 8.08717 22.7537 5.95399 20.6281C3.79055 18.4722 1.14298 16.6795 0.0234375 13.4797C10.5381 16.8762 20.2509 22.2696 30.7352 25.5979C30.8411 25.4315 30.947 25.2726 31.0529 25.1062C30.6142 24.5691 30.236 23.964 29.7291 23.5026C25.493 19.6145 21.1435 15.8323 17.0057 11.8458C14.0177 8.96381 11.2869 5.82458 8.48809 2.761C7.8678 2.08021 7.42906 1.233 7.187 0C9.04029 0.748875 10.9692 1.36916 12.7393 2.28445C19.5322 5.78676 26.2949 9.35715 33.0424 12.9427C37.6265 15.3784 42.15 17.9427 46.7492 20.3633C52.8462 23.5706 58.9129 26.8536 65.1385 29.8037C74.7832 34.3726 84.4354 38.9566 94.2844 43.049C104.217 47.1791 114.459 50.5831 124.459 54.5695C134.656 58.6316 145.11 61.8843 155.632 64.9479C158.257 65.7119 160.791 66.786 163.401 67.6332C164.604 68.0266 165.867 68.2157 167.1 68.4956C167.183 68.2913 167.266 68.0871 167.35 67.8904C165.738 66.612 164.12 65.3412 162.508 64.0628L162.72 63.4955C163.666 63.6771 164.672 63.7376 165.557 64.0704C169.702 65.6514 173.878 67.1794 177.932 68.9797C181.813 70.7044 185.527 72.7846 189.362 74.6076C190.974 75.3716 192.683 75.9389 194.393 76.4836C198.833 77.9057 202.933 79.9708 206.73 82.6712C207.184 82.9965 207.683 83.2688 208.175 83.5336C208.319 83.6092 208.523 83.5639 209.166 83.5941C208.379 82.2401 207.714 81.0903 206.844 79.5774C207.827 79.6606 208.523 79.5245 209 79.7892C210.649 80.7045 212.426 81.5442 213.78 82.8074C219.476 88.1025 226.232 91.983 232.223 96.8772C234.121 98.4279 236.126 99.8575 238.123 101.287C239.197 102.059 240.286 102.845 241.474 103.39C243.645 104.381 245.816 104.812 248.282 103.965C252.163 102.634 255.756 101.053 258.865 98.1934C263.161 94.2448 267.715 90.5609 272.299 86.9376C277.783 82.6032 284.1 80.2658 291.112 79.9935C296.793 79.7741 302.429 80.0615 307.951 81.6803C311.536 82.7242 314.88 84.2446 317.822 86.4913C320.054 88.1857 321.733 90.4021 321.468 93.4656C321.302 95.3946 322.217 96.4006 323.897 97.1192C325.19 97.6714 326.378 98.4733 327.558 99.26C327.959 99.5323 328.178 100.084 328.859 101.053C326.847 101.053 325.364 101.151 323.904 101.03C321.158 100.796 319.328 102.006 318.435 104.495C316.786 109.116 315.273 113.791 313.73 118.443C313.654 118.67 313.79 118.965 313.874 119.517C315.107 119.29 316.309 119.154 317.459 118.837C326.93 116.219 336.363 113.489 345.856 110.985C348.844 110.198 351.999 110.069 355.047 109.472C358.285 108.836 361.492 108.042 364.692 107.256C367.445 106.582 370.176 105.811 372.922 105.122C374.231 104.797 375.554 104.593 376.122 106.461C378.035 105.939 379.866 105.485 381.659 104.933C388.134 102.929 394.904 101.794 400.933 98.4279C404.806 96.2645 408.717 94.1691 412.62 92.0435C413.997 91.2947 415.374 90.5533 417.484 90.4021C415.23 94.0859 412.106 96.2115 409.065 99.2221C410.767 98.9725 412.068 98.8439 413.346 98.5792C420.563 97.1041 427.568 94.8726 434.444 92.3083C439.603 90.3794 444.157 87.3007 448.181 83.5033C448.665 83.0495 449.104 82.5502 449.595 82.1039C455.428 76.8088 460.307 70.6968 464.921 64.3427C467.357 60.9917 469.868 57.6634 472.66 54.6074C475.526 51.4757 478.87 48.7828 482.682 46.8387C483.923 46.2033 485.496 46.2411 487.024 45.9537C489.838 41.8765 492.539 37.3303 495.89 33.3136C499.135 29.4179 502.403 25.3029 507.902 22.8823C507.955 24.3649 508.152 25.2651 508.001 26.1047C506.125 36.8008 502.721 46.9824 496.979 56.2337C494.604 60.0613 491.783 63.6468 488.908 67.134C482.463 74.948 474.566 81.113 465.685 85.8256C460.957 88.3294 456.963 91.7258 452.583 94.6381C449.853 96.4536 447.561 98.8969 444.943 100.901C443.15 102.271 441.078 103.262 439.255 104.593C436.774 106.416 434.164 107.989 432.553 110.909C430.639 114.381 426.985 116.182 423.801 118.322C422.099 119.464 420.041 120.07 418.248 121.098C416.97 121.832 415.775 122.778 414.708 123.806C410.01 128.322 405.101 132.566 399.526 135.993C398.512 136.613 398.051 137.385 398.089 138.527C398.165 141.144 396.758 143.164 394.897 144.578C391.682 147.022 388.263 149.23 384.76 151.258C382.794 152.392 381.439 153.436 381.568 155.993C381.727 159.026 379.382 160.463 377.029 161.56C374.405 162.793 371.689 163.852 368.951 164.821C367.385 165.38 366.303 166.273 365.864 167.846C365.009 170.895 362.854 172.68 359.994 173.467C357.566 174.14 355.017 174.45 352.505 174.692C350.992 174.836 349.933 175.154 349.767 176.855C349.101 183.754 344.071 185.653 338.36 186.561C336.832 186.803 335.697 187.34 334.721 188.437C334.283 188.928 333.768 189.359 333.329 189.851C331.287 192.113 328.829 193.202 325.833 192.582C325.599 192.748 325.364 192.831 325.311 192.975C323.798 196.977 321.037 199.783 317.194 201.621C313.2 203.52 310.318 206.826 307.171 209.776C305.727 211.13 304.395 212.62 302.943 213.966C300.333 216.387 297.928 216.084 295.832 213.134C295.295 212.378 294.751 211.614 294.115 210.714C293.2 211.379 292.383 211.969 291.604 212.544C289.849 212.446 289.138 211.228 288.555 209.897C288.041 208.732 287.413 207.877 285.998 207.537C284.349 207.143 283.358 205.82 282.791 204.216C282.413 203.149 281.989 202.098 281.596 201.031C281.203 199.98 280.824 198.921 280.302 197.506C279.485 197.915 278.669 198.127 278.124 198.633C275.091 201.462 272.118 204.352 269.13 207.234C268.865 207.491 268.585 207.764 268.411 208.089C266.255 212.075 263.305 215.177 259.515 217.491C258.971 217.824 258.434 218.293 258.093 218.83C255.43 223.097 252.987 227.537 252.087 232.514C251.134 237.794 250.665 243.165 250.014 248.498C249.651 251.486 249.326 254.481 249.031 257.484C248.751 260.298 248.585 263.12 248.29 265.926C247.805 270.51 247.268 275.094 246.731 279.671C246.126 284.815 245.581 289.966 244.848 295.095C244.106 300.223 243.168 305.322 242.314 310.435C240.922 318.711 239.537 326.978 238.13 335.246C237.14 341.101 236.239 346.971 235.067 352.788C234.704 354.596 234.568 356.79 232.162 357.992C228.577 353.93 226.61 349.051 225.256 343.998C223.932 339.059 223.16 333.968 222.086 328.665C220.346 330.239 219.953 332.251 218.97 333.915C217.396 336.585 215.853 339.278 214.144 341.865C213.266 343.197 212.351 343.514 209.892 344.18C208.13 342.213 207.774 339.634 207.494 337.16C207.093 333.605 207.003 330.019 206.859 326.441C206.64 321.071 206.42 315.7 206.329 310.322C206.299 308.355 206.64 306.388 206.776 304.414C206.829 303.589 206.783 302.75 206.345 301.728C205.717 302.697 205.036 303.635 204.469 304.641C200.452 311.789 196.601 319.043 192.418 326.093C189.196 331.525 185.709 336.827 180.935 341.109C179.884 342.047 178.764 342.939 177.569 343.681C175.829 344.747 174.914 344.513 174.279 342.644C173.182 339.422 172.751 336.101 173.023 332.644C173.484 326.895 174.286 321.222 175.565 315.602C175.671 315.148 175.383 314.603 175.156 313.461C173.439 315.67 172.168 317.493 170.716 319.149C165.345 325.254 159.808 331.199 152.864 335.594C148.968 338.06 147.039 336.948 146.714 332.266C146.162 324.414 148.302 317.13 151.177 309.974C152.69 306.207 154.165 302.424 155.632 298.635C155.821 298.143 155.852 297.598 156.041 296.675C154.18 298.362 152.811 299.913 151.154 301.048C144.293 305.723 137.704 310.828 130.14 314.414C126.396 316.192 125.685 315.783 125.745 311.592C125.76 310.473 125.927 309.338 126.154 308.241C127.818 300.102 131.312 292.704 135.655 285.45C134.195 284.928 133.31 285.896 132.372 286.494C128.098 289.209 123.846 291.978 119.58 294.709C116.637 296.592 113.755 298.589 110.699 300.276C104.928 303.468 99.0576 306.494 93.1951 309.535C92.3781 309.959 91.4099 310.185 90.4795 310.299C88.664 310.518 87.8773 309.679 88.4824 307.977C89.08 306.297 89.897 304.663 90.835 303.143C92.8093 299.921 95.0106 296.88 97.7867 294.247C100.109 292.046 102.114 289.52 104.36 287.228C105.608 285.949 107.099 284.913 108.385 283.672C109.073 283.014 109.557 282.144 110.132 281.365C109.988 281.184 109.845 281.01 109.693 280.828L109.633 280.843Z" fill="#BFC4C3"/>
</g>
<defs>
<clipPath id="clip0_539_893">
<rect width="508" height="358" fill="white"/>
</clipPath>
</defs>
</svg>
